<?xml version="1.0" encoding="utf-8"?>
<!-- Generator: Adobe Illustrator 27.2.0, SVG Export Plug-In . SVG Version: 6.00 Build 0)  -->
<svg version="1.1" xmlns="http://www.w3.org/2000/svg" xmlns:xlink="http://www.w3.org/1999/xlink" x="0px" y="0px"
	 viewBox="0 0 2413 2479" style="enable-background:new 0 0 2413 2479;" xml:space="preserve">
<style type="text/css">
	.st0{fill:#A61C20;}
	.st1{fill:none;stroke:#000000;stroke-width:2;stroke-miterlimit:10;}
	.st2{fill:#231F20;}
	.st3{font-family:'MyriadPro-Regular';}
	.st4{font-size:47.9688px;}
	.st5{font-size:35.6998px;}
	.st6{fill:#006838;}
	.st7{fill:none;stroke:#231F20;stroke-width:0.25;stroke-miterlimit:10;}
	.st8{font-size:53.5937px;}
	.st9{font-size:48.7493px;}
	.st10{font-size:51.3783px;}
	.st11{font-size:41.7831px;}
	.st12{font-size:39.0608px;}
	.st13{font-size:35.6386px;}
	.st14{font-size:34.8286px;}
	.st15{fill:#FFFFFF;}
	.st16{font-size:136.7224px;}
	.st17{fill:none;stroke:#231F20;stroke-width:0.5;stroke-miterlimit:10;}
	.st18{font-size:33.5201px;}
</style>
<g id="Layer_1">
	<g>
		<path class="st0" d="M1853.21,573c28.04,0.18,52.01,20.77,56.39,48.31c1.65,10.39-0.49,20.04-4.4,29.53
			c-6.14,14.9-14.3,28.7-23.38,41.93c-7.79,11.35-16.05,22.37-24.18,33.49c-2.45,3.35-6.25,3.39-8.73,0.21
			c-14.02-17.93-27.17-36.46-38.31-56.35c-5.47-9.76-10.44-19.76-13.16-30.7c-2.75-11.05-1.06-21.76,3.51-31.92
			c8.44-18.74,23.03-29.9,43.25-33.59C1847.16,573.36,1850.21,573.29,1853.21,573z M1853.16,604.22
			c-11.51,0.04-20.77,9.33-20.75,20.86c0.01,11.47,9.36,20.73,20.9,20.72c11.37-0.02,20.7-9.39,20.67-20.78
			C1873.96,613.49,1864.64,604.19,1853.16,604.22z"/>
	</g>
</g>
<g id="Layer_2">
	<path class="st1" d="M1835.19,741.69l-60.01,155.4c0,0-54.18,154.91-193.18,224.91c0,0-96.06,36.45-372.53,33.72
		c0,0-72.47-0.72-123.47,32.28c0,0-293.17,148-287.09,505c0,0-1.91,24-36.91,61c0,0-88,108-142,206c0,0-93,201.81-452,332.4"/>
	<path class="st1" d="M1861.82,750.91l-60.01,155.4c0,0-10.44,27.12,3.38,80.9c13.81,53.79,68.8,222.64,68.8,222.64l38.13,107.83
		c0,0,16.95,32.85-106.08,104.08c-116.68,67.56-344.48,89.07-344.48,89.07c-389.74,12.32-587.12,166.34-625.53,199.79
		c0,0-138.02,145.38-199.02,275.38c0,0-125,227-469,337"/>
	<path class="st1" d="M828.4,1702.67"/>
	<path class="st1" d="M1032.53,1242.28c-2.62,2.2-5.3,4.49-8.04,6.86"/>
	<path class="st1" d="M1756.83,987.88c-2.42,4.43-5.1,9.13-8.06,14.08c0,0-85.77,125.04-186.77,146.04s-332.06,25.15-352.53,24.57
		c0,0-27.79-0.74-64.22,7.74c0,0-53.3,12.21-107.28,57.45c-1.77,1.48-3.6,2.97-5.44,4.52"/>
	<path class="st1" d="M1756.83,987.88c13.01-23.81,18.35-39.48,18.35-39.48S1779,1003,1816,1112l72.35,202.96
		c0,0,14.71,21.58-90.32,82.81c-116.47,67.91-344.48,89.07-344.48,89.07C1016.11,1500.66,821,1693,821,1693
		c-12.36-220.46,119.61-371.11,203.49-443.86"/>
	<text transform="matrix(1 0 0 1 1811.4805 1553.75)"><tspan x="0" y="0" class="st2 st3 st4">Nagarkot Geodic</tspan><tspan x="32.74" y="57.56" class="st2 st3 st4">Survey Tower</tspan></text>
	<text transform="matrix(1 0 0 1 1486.7129 978.5107)"><tspan x="0" y="0" class="st2 st3 st5">Buddha Peace</tspan><tspan x="73.61" y="42.84" class="st2 st3 st5">Park</tspan></text>
	<circle class="st6" cx="1870.64" cy="1441.5" r="24.12"/>
	<g>
		<g>
			<line class="st7" x1="1876.52" y1="1444.7" x2="1924.73" y2="1505.02"/>
			<g>
				<path class="st2" d="M1924.45,1504.67l0.36-0.99l0.04,0.01l0.46,1.51c0.23,0.47,0.46,0.94,0.69,1.41
					c-0.41-0.33-0.81-0.66-1.22-0.99l-1.37-0.78l-0.01-0.03L1924.45,1504.67z"/>
			</g>
		</g>
	</g>
	<text transform="matrix(1 0 0 1 2105.002 1117.75)"><tspan x="0" y="0" class="st2 st3 st4">Hidden</tspan><tspan x="-32.91" y="57.56" class="st2 st3 st4">View Point</tspan></text>
	<circle class="st6" cx="2069.64" cy="1005.5" r="24.12"/>
	<g>
		<g>
			<line class="st7" x1="2075.52" y1="1008.7" x2="2123.73" y2="1069.02"/>
			<g>
				<path class="st2" d="M2123.45,1068.67l0.36-0.99l0.04,0.01l0.46,1.51c0.23,0.47,0.46,0.94,0.69,1.41
					c-0.41-0.33-0.81-0.66-1.22-0.99l-1.37-0.78l-0.01-0.03L2123.45,1068.67z"/>
			</g>
		</g>
	</g>
	<text transform="matrix(1 0 0 1 412.4956 2372.293)" class="st2 st3 st8">Bhaktapur Durbar Square</text>
	<circle class="st6" cx="528.53" cy="2204.07" r="37.49"/>
	<g>
		<g>
			<line class="st7" x1="537.67" y1="2209.04" x2="613.32" y2="2303.7"/>
			<g>
				<path class="st2" d="M613.04,2303.35l0.36-0.99l0.04,0.01l0.46,1.51c0.23,0.47,0.46,0.94,0.69,1.41
					c-0.41-0.33-0.81-0.66-1.22-0.99l-1.37-0.78l-0.01-0.03L613.04,2303.35z"/>
			</g>
		</g>
	</g>
	<text transform="matrix(1 0 0 1 157.9585 950.8027)" class="st2 st3 st9">Sankhu</text>
	<circle class="st6" cx="188.51" cy="788.08" r="37.49"/>
	<g>
		<g>
			<line class="st7" x1="199.17" y1="788.08" x2="214.8" y2="908.24"/>
			<g>
				<path class="st2" d="M214.74,907.8l0.82-0.66l0.02,0.03l-0.39,1.53c-0.05,0.52-0.09,1.04-0.14,1.57
					c-0.18-0.49-0.36-0.99-0.53-1.48l-0.77-1.38l0.01-0.03L214.74,907.8z"/>
			</g>
		</g>
	</g>
	<text transform="matrix(1 0 0 1 461.0389 674.0463)" class="st2 st3 st9">Panchakanya Park</text>
	<circle class="st6" cx="494.53" cy="510.37" r="37.49"/>
	<g>
		<g>
			<line class="st7" x1="503.2" y1="521.05" x2="560.19" y2="627.98"/>
			<g>
				<path class="st2" d="M559.98,627.59l0.54-0.91l0.03,0.02l0.18,1.57c0.14,0.5,0.28,1.01,0.42,1.51c-0.34-0.4-0.68-0.8-1.02-1.2
					l-1.21-1.02l0-0.03L559.98,627.59z"/>
			</g>
		</g>
	</g>
	<text transform="matrix(1 0 0 1 1212.1705 298.0463)" class="st2 st3 st9">Shankharapur</text>
	<circle class="st6" cx="1205.52" cy="143.37" r="37.49"/>
	<g>
		<g>
			<line class="st7" x1="1205.46" y1="150.7" x2="1279.62" y2="246.53"/>
			<g>
				<path class="st2" d="M1279.35,246.17l0.38-0.98l0.04,0.01l0.44,1.52c0.22,0.47,0.45,0.95,0.67,1.42
					c-0.4-0.34-0.8-0.67-1.21-1.01l-1.36-0.8l-0.01-0.03L1279.35,246.17z"/>
			</g>
		</g>
	</g>
	<text transform="matrix(1 0 0 1 753.937 1966.625)" class="st2 st3 st10">Kamal Binayak</text>
	<text transform="matrix(0.3809 -0.9246 0.9246 0.3809 779.732 1527.197)" class="st2 st3 st11">Nagarkot Road</text>
	<text transform="matrix(0.9718 -0.2357 0.2357 0.9718 984.7881 1658.4866)" class="st2 st3 st11">Saraswati Sthan Road</text>
	<text transform="matrix(0.939 -0.3439 0.3439 0.939 846.4351 838.2252)" class="st2 st3 st11">Kattike Dandagon Marg</text>
	<circle class="st6" cx="800.69" cy="1818.64" r="23.86"/>
	<g>
		<g>
			<line class="st7" x1="797.39" y1="1819.15" x2="836.34" y2="1902.28"/>
			<g>
				<path class="st2" d="M836.15,1901.87l0.58-0.88l0.03,0.02l0.09,1.58c0.12,0.51,0.23,1.02,0.35,1.53
					c-0.32-0.42-0.64-0.83-0.96-1.25l-1.15-1.08l0-0.03L836.15,1901.87z"/>
			</g>
		</g>
	</g>
	<circle class="st6" cx="1583.04" cy="1099.18" r="14.95"/>
	<g>
		<g>
			<line class="st7" x1="1583.06" y1="1095.66" x2="1588.17" y2="1048.83"/>
			<g>
				<path class="st2" d="M1588.12,1049.28l-0.95,0.45l-0.02-0.03l0.74-1.4c0.17-0.5,0.33-0.99,0.5-1.49
					c0.06,0.52,0.11,1.04,0.17,1.56l0.42,1.52l-0.02,0.03L1588.12,1049.28z"/>
			</g>
		</g>
	</g>
	<text transform="matrix(1 0 0 1 1190.8232 1012.4814)"><tspan x="0" y="0" class="st2 st3 st12">Sallaghari Picnic</tspan><tspan x="93.88" y="46.87" class="st2 st3 st12">Spot</tspan></text>
	<circle class="st6" cx="1379.04" cy="1133.18" r="14.95"/>
	<g>
		<g>
			<line class="st7" x1="1376.94" y1="1129.6" x2="1370.78" y2="1082.89"/>
			<g>
				<path class="st2" d="M1370.84,1083.33l-0.82,0.66l-0.02-0.03l0.39-1.53c0.04-0.52,0.09-1.04,0.13-1.57
					c0.18,0.49,0.36,0.99,0.54,1.48l0.77,1.38l-0.01,0.03L1370.84,1083.33z"/>
			</g>
		</g>
	</g>
	<text transform="matrix(1 0 0 1 1089.2485 1305.1816)" class="st2 st3 st13">Muhan Pokhari</text>
	<text transform="matrix(1 0 0 1 1350.2715 1287.6309)"><tspan x="0" y="0" class="st2 st3 st14">Nagarkot</tspan><tspan x="-4.93" y="41.79" class="st2 st3 st14">Water Fall</tspan></text>
	<circle class="st6" cx="1238.75" cy="1207.46" r="14.95"/>
	<g>
		<g>
			<line class="st7" x1="1239.4" y1="1211.56" x2="1228.1" y2="1257.3"/>
			<g>
				<path class="st2" d="M1228.2,1256.86l1.01-0.32l0.01,0.03l-0.92,1.29c-0.23,0.47-0.46,0.94-0.7,1.41
					c0.01-0.52,0.03-1.05,0.04-1.57l-0.21-1.57l0.02-0.03L1228.2,1256.86z"/>
			</g>
		</g>
	</g>
	<circle class="st6" cx="1363.5" cy="1205.17" r="14.95"/>
	<g>
		<g>
			<line class="st7" x1="1369.24" y1="1212.95" x2="1388.61" y2="1255.9"/>
			<g>
				<path class="st2" d="M1388.42,1255.49l0.6-0.87l0.03,0.02l0.07,1.58c0.11,0.51,0.22,1.03,0.32,1.54
					c-0.31-0.42-0.63-0.84-0.94-1.26l-1.14-1.1l0-0.03L1388.42,1255.49z"/>
			</g>
		</g>
	</g>
	<g>
		<rect x="2066.23" y="300.98" class="st2" width="116.72" height="173.18"/>
		<g>
			<polygon class="st2" points="1994.18,330.29 2124.59,203 2255,330.29 			"/>
			<text transform="matrix(1.0245 0 0 1 2078.5049 446.8198)" class="st15 st3 st16">N</text>
		</g>
	</g>
	<path class="st1" d="M1792.72,623.46c0,0-361.92-142.89-657.47,29.51c0,0-294.33,199.38-876.03,152.41"/>
	<path class="st1" d="M255.79,777.51c581.69,46.96,876.03-152.41,876.03-152.41c79.02-46.1,162.79-69.65,243.11-79.43
		c0,0-8.36-4.67-6.15-18.67c0,0,26.21-98-144.79-122c0,0-407-12-653-335"/>
	<path class="st1" d="M1465.04,540.01c-20.86,0.14-42.2,1.06-63.87,2.93c0,0-12.17-0.94-12.17-15.94c0,0,0-4,1-10c0,0,6-45-42-83
		s-121-45-121-45S819,367,590,57"/>
	<path class="st1" d="M1789.29,595.58c0,0-143.86-56.8-324.24-55.57"/>
	<g>
		<g>
			<line class="st17" x1="1792.68" y1="885.99" x2="1822.43" y2="813.79"/>
			<g>
				<path class="st2" d="M1822.35,813.97c-0.68,0.28-1.73,0.12-2.4-0.13c1.16-0.3,2.29-0.84,3.16-1.7
					c-0.01,1.21,0.47,2.37,1.04,3.43C1823.46,815.22,1822.67,814.69,1822.35,813.97z"/>
			</g>
		</g>
	</g>
	<g>
		<g>
			<line class="st17" x1="1844.16" y1="1156.07" x2="1820.17" y2="1081.76"/>
			<g>
				<path class="st2" d="M1820.23,1081.95c-0.34,0.66-1.24,1.21-1.92,1.45c0.7-0.98,1.21-2.12,1.31-3.34
					c0.77,0.93,1.9,1.51,3.01,1.94C1821.89,1082.18,1820.94,1082.29,1820.23,1081.95z"/>
			</g>
		</g>
	</g>
	<g>
		<g>
			<line class="st17" x1="1757.55" y1="1430.67" x2="1826.65" y2="1394.29"/>
			<g>
				<path class="st2" d="M1826.47,1394.39c-0.71-0.22-1.41-1.02-1.76-1.64c1.08,0.52,2.3,0.83,3.51,0.72
					c-0.79,0.92-1.16,2.13-1.4,3.3C1826.53,1396.06,1826.26,1395.15,1826.47,1394.39z"/>
			</g>
		</g>
	</g>
	<g>
		<g>
			<line class="st17" x1="1458.38" y1="1497.87" x2="1535.64" y2="1486.52"/>
			<g>
				<path class="st2" d="M1535.44,1486.55c-0.59-0.44-0.99-1.43-1.11-2.13c0.85,0.85,1.89,1.54,3.07,1.85
					c-1.05,0.61-1.8,1.62-2.41,2.65C1534.94,1488.14,1534.99,1487.19,1535.44,1486.55z"/>
			</g>
		</g>
	</g>
	<g>
		<g>
			<line class="st17" x1="1114.5" y1="1554.08" x2="1189.56" y2="1532.54"/>
			<g>
				<path class="st2" d="M1189.37,1532.6c-0.65-0.36-1.17-1.28-1.39-1.97c0.95,0.73,2.08,1.28,3.29,1.42
					c-0.96,0.74-1.57,1.84-2.04,2.95C1189.08,1534.24,1189.01,1533.3,1189.37,1532.6z"/>
			</g>
		</g>
	</g>
	<g>
		<g>
			<line class="st17" x1="867.27" y1="1667.97" x2="934.97" y2="1629.05"/>
			<g>
				<path class="st2" d="M934.79,1629.15c-0.71-0.19-1.44-0.96-1.82-1.58c1.1,0.48,2.33,0.74,3.54,0.59
					c-0.75,0.95-1.08,2.17-1.27,3.35C934.91,1630.81,934.61,1629.91,934.79,1629.15z"/>
			</g>
		</g>
	</g>
	<g>
		<g>
			<line class="st17" x1="867" y1="1428.27" x2="896.76" y2="1379.49"/>
			<g>
				<path class="st2" d="M896.66,1379.67c-0.72,0.17-1.73-0.15-2.35-0.51c1.19-0.11,2.4-0.47,3.38-1.18c-0.2,1.2,0.09,2.42,0.5,3.55
					C897.56,1381.07,896.86,1380.43,896.66,1379.67z"/>
			</g>
		</g>
	</g>
	<g>
		<g>
			<line class="st17" x1="811.46" y1="1606.99" x2="822.88" y2="1551"/>
			<g>
				<path class="st2" d="M822.84,1551.2c-0.62,0.41-1.68,0.45-2.38,0.32c1.09-0.51,2.09-1.25,2.78-2.26
					c0.22,1.19,0.91,2.24,1.67,3.17C824.16,1552.21,823.29,1551.84,822.84,1551.2z"/>
			</g>
		</g>
	</g>
	<g>
		<g>
			<line class="st17" x1="992.4" y1="1265.31" x2="1034.05" y2="1228"/>
			<g>
				<path class="st2" d="M1033.9,1228.14c-0.74-0.04-1.61-0.64-2.11-1.16c1.18,0.24,2.43,0.24,3.58-0.16
					c-0.54,1.09-0.61,2.34-0.55,3.54C1034.36,1229.74,1033.88,1228.92,1033.9,1228.14z"/>
			</g>
		</g>
	</g>
	<g>
		<g>
			<line class="st17" x1="1185.04" y1="1165.44" x2="1240.96" y2="1164.71"/>
			<g>
				<path class="st2" d="M1240.76,1164.72c-0.53-0.52-0.79-1.55-0.82-2.26c0.73,0.95,1.67,1.78,2.8,2.24
					c-1.12,0.47-2,1.37-2.74,2.31C1240.05,1166.23,1240.22,1165.3,1240.76,1164.72z"/>
			</g>
		</g>
	</g>
	<g>
		<g>
			<line class="st17" x1="1379.09" y1="1157.78" x2="1434.91" y2="1154.45"/>
			<g>
				<path class="st2" d="M1434.71,1154.46c-0.55-0.49-0.86-1.51-0.93-2.22c0.77,0.92,1.75,1.7,2.9,2.1
					c-1.1,0.52-1.93,1.46-2.63,2.43C1434.07,1156.01,1434.2,1155.07,1434.71,1154.46z"/>
			</g>
		</g>
	</g>
	<g>
		<g>
			<line class="st17" x1="1601.41" y1="1122.33" x2="1648.86" y2="1092.74"/>
			<g>
				<path class="st2" d="M1648.69,1092.85c-0.72-0.17-1.48-0.91-1.87-1.51c1.12,0.44,2.35,0.66,3.56,0.46c-0.72,0.98-1,2.2-1.15,3.4
					C1648.87,1094.51,1648.53,1093.62,1648.69,1092.85z"/>
			</g>
		</g>
	</g>
	<g>
		<g>
			<line class="st17" x1="1632" y1="565.68" x2="1686.06" y2="579.99"/>
			<g>
				<path class="st2" d="M1685.87,579.94c-0.37-0.64-0.35-1.7-0.18-2.4c0.45,1.11,1.13,2.16,2.1,2.91c-1.2,0.15-2.29,0.78-3.26,1.49
					C1684.77,581.2,1685.19,580.35,1685.87,579.94z"/>
			</g>
		</g>
	</g>
	<g>
		<g>
			<line class="st17" x1="1436.04" y1="555.52" x2="1491.96" y2="554.63"/>
			<g>
				<path class="st2" d="M1491.76,554.63c-0.53-0.51-0.8-1.54-0.83-2.26c0.73,0.95,1.68,1.78,2.81,2.23
					c-1.12,0.47-1.99,1.37-2.74,2.32C1491.05,556.15,1491.22,555.22,1491.76,554.63z"/>
			</g>
		</g>
	</g>
	<g>
		<g>
			<line class="st17" x1="1261.9" y1="585.07" x2="1316.15" y2="571.49"/>
			<g>
				<path class="st2" d="M1315.96,571.54c-0.63-0.38-1.13-1.32-1.32-2.01c0.93,0.76,2.04,1.35,3.24,1.53
					c-0.98,0.71-1.63,1.79-2.14,2.88C1315.61,573.18,1315.57,572.23,1315.96,571.54z"/>
			</g>
		</g>
	</g>
	<g>
		<g>
			<line class="st17" x1="1158.23" y1="390.73" x2="1213.78" y2="397.19"/>
			<g>
				<path class="st2" d="M1213.58,397.17c-0.46-0.58-0.59-1.63-0.52-2.35c0.6,1.04,1.43,1.98,2.49,2.58
					c-1.17,0.32-2.16,1.1-3.02,1.94C1212.68,398.58,1212.97,397.68,1213.58,397.17z"/>
			</g>
		</g>
	</g>
	<g>
		<g>
			<line class="st17" x1="965.64" y1="338.6" x2="1018.46" y2="356.95"/>
			<g>
				<path class="st2" d="M1018.27,356.88c-0.32-0.66-0.22-1.72,0-2.41c0.36,1.14,0.96,2.24,1.87,3.06c-1.21,0.06-2.34,0.6-3.37,1.24
					C1017.09,358.06,1017.57,357.24,1018.27,356.88z"/>
			</g>
		</g>
	</g>
	<g>
		<g>
			<line class="st17" x1="813.26" y1="268.04" x2="861" y2="297.16"/>
			<g>
				<path class="st2" d="M860.83,297.06c-0.17-0.72,0.15-1.73,0.51-2.35c0.11,1.19,0.47,2.4,1.18,3.38c-1.2-0.2-2.42,0.09-3.55,0.5
					C859.42,297.96,860.06,297.27,860.83,297.06z"/>
			</g>
		</g>
	</g>
	<g>
		<g>
			<line class="st17" x1="698.31" y1="186.92" x2="740.14" y2="224.03"/>
			<g>
				<path class="st2" d="M739.99,223.9c-0.04-0.74,0.46-1.68,0.92-2.23c-0.1,1.2,0.04,2.44,0.57,3.54c-1.14-0.41-2.4-0.34-3.58-0.14
					C738.44,224.54,739.2,223.97,739.99,223.9z"/>
			</g>
		</g>
	</g>
	<g>
		<g>
			<line class="st17" x1="1374.23" y1="483.9" x2="1381.08" y2="508.51"/>
			<g>
				<path class="st2" d="M1381.02,508.32c0.36-0.64,1.29-1.16,1.98-1.37c-0.74,0.95-1.29,2.07-1.45,3.28
					c-0.74-0.96-1.83-1.58-2.93-2.06C1379.38,508.02,1380.32,507.95,1381.02,508.32z"/>
			</g>
		</g>
	</g>
	<g>
		<g>
			<line class="st17" x1="1036.51" y1="689.74" x2="1087.64" y2="667.11"/>
			<g>
				<path class="st2" d="M1087.46,667.19c-0.69-0.27-1.34-1.11-1.64-1.76c1.04,0.59,2.24,0.98,3.46,0.96
					c-0.85,0.87-1.3,2.04-1.62,3.2C1087.4,668.86,1087.2,667.93,1087.46,667.19z"/>
			</g>
		</g>
	</g>
	<g>
		<g>
			<line class="st17" x1="841.58" y1="751.64" x2="896.45" y2="740.83"/>
			<g>
				<path class="st2" d="M896.25,740.87c-0.61-0.41-1.06-1.38-1.22-2.08c0.89,0.81,1.96,1.45,3.16,1.69
					c-1.02,0.66-1.72,1.71-2.28,2.77C895.83,742.49,895.83,741.54,896.25,740.87z"/>
			</g>
		</g>
	</g>
	<g>
		<g>
			<line class="st17" x1="642.2" y1="785.12" x2="697.81" y2="779.2"/>
			<g>
				<path class="st2" d="M697.61,779.22c-0.57-0.46-0.93-1.47-1.03-2.18c0.81,0.88,1.83,1.62,3,1.97c-1.07,0.57-1.86,1.55-2.52,2.55
					C697.04,780.8,697.13,779.85,697.61,779.22z"/>
			</g>
		</g>
	</g>
	<g>
		<g>
			<line class="st17" x1="431.05" y1="798.84" x2="486.95" y2="797.33"/>
			<g>
				<path class="st2" d="M486.75,797.34c-0.54-0.51-0.81-1.53-0.85-2.25c0.74,0.94,1.7,1.76,2.83,2.2
					c-1.11,0.48-1.98,1.39-2.71,2.35C486.06,798.86,486.22,797.93,486.75,797.34z"/>
			</g>
		</g>
	</g>
	<g>
		<g>
			<line class="st17" x1="695.23" y1="1866.24" x2="741.49" y2="1803.33"/>
			<g>
				<path class="st2" d="M741.37,1803.49c-0.73,0.11-1.71-0.3-2.3-0.71c1.2-0.01,2.43-0.26,3.47-0.89c-0.3,1.17-0.11,2.42,0.19,3.58
					C742.15,1804.97,741.51,1804.26,741.37,1803.49z"/>
			</g>
		</g>
	</g>
	<g>
		<g>
			<line class="st17" x1="533.01" y1="2095.65" x2="587.53" y2="2039.75"/>
			<g>
				<path class="st2" d="M587.39,2039.9c-0.74,0.01-1.65-0.53-2.18-1.02c1.19,0.16,2.44,0.08,3.56-0.4
					c-0.46,1.12-0.45,2.38-0.31,3.57C587.96,2041.47,587.42,2040.68,587.39,2039.9z"/>
			</g>
		</g>
	</g>
	<g>
		<g>
			<line class="st17" x1="323.79" y1="2239.11" x2="392.43" y2="2201.87"/>
			<g>
				<path class="st2" d="M392.25,2201.96c-0.71-0.21-1.42-1-1.78-1.62c1.09,0.5,2.31,0.8,3.52,0.67c-0.77,0.93-1.13,2.14-1.35,3.32
					C392.32,2203.63,392.04,2202.73,392.25,2201.96z"/>
			</g>
		</g>
	</g>
	<text transform="matrix(1 0 0 1 375.5479 86.1724)"><tspan x="0" y="0" class="st2 st3 st18">Way to</tspan><tspan x="-50.73" y="40.22" class="st2 st3 st18">Jarsing Pauwa</tspan><tspan x="-50.36" y="80.45" class="st2 st3 st18">Buddha Stupa</tspan></text>
</g>
</svg>
